<?xml version="1.0" encoding="UTF-8"?>
<svg xmlns="http://www.w3.org/2000/svg" version="1.1" viewBox="0 0 47 41">
  <!-- Generator: Adobe Illustrator 30.2.1, SVG Export Plug-In . SVG Version: 2.1.1 Build 1)  -->
  <defs>
    <style>
      .st0 {
        fill: #0037ff;
      }

      .st1 {
        fill: #00217f;
      }
    </style>
  </defs>
  <g id="Layer_1" data-logo="logo">
    <g>
      <path class="st1" d="M39.8,32.9h0s-6.5,5.7-6.5,5.7c-1.3,1.2-3,1.9-4.8,1.9h0s-22.2,0-22.2,0c-.8,0-1.6-.1-2.4-.4-.8-.3-1.4-.8-2-1.5-.5-.6-.9-1.4-1.1-2.2-.2-.8-.2-1.6,0-2.4l1.7-8.7c.2-.8.6-1.4,1.1-1.9h0c-.2-.3-.3-.6-.4-1-.1-.4-.1-.9,0-1.3l1.7-8.7h0c.3-1.6,1.2-3,2.4-4l5.9-5.2c.3-.3.6-.6.9-.9,1.3-1.1,2.9-1.7,4.6-1.7h0s22.2,0,22.2,0c.8,0,1.6.1,2.4.4.8.3,1.4.8,2,1.5.5.6.9,1.4,1.1,2.2.2.8.2,1.6,0,2.4l-4.2,21.6h0c-.4,1.6-1.3,3.1-2.5,4.1Z"/>
      <path class="st0" d="M40.8,2.6c.6,0,1.2,0,1.7.3.5.2,1,.6,1.4,1,.4.5.6,1,.8,1.6.1.6.1,1.2,0,1.7l-4.2,21.7c-.3,1.3-1,2.4-2,3.3-1,.8-2.3,1.3-3.6,1.4H12.7c-.6,0-1.2,0-1.7-.3s-1-.6-1.4-1c-.4-.5-.6-1-.8-1.6-.1-.6-.1-1.2,0-1.7l1.7-8.8c0-.4.3-.8.7-1.1.3-.3.8-.4,1.2-.4,4,.1,7.9.4,11.5,1.7l.8,5c0,.1,0,.2.2.3,0,0,.2.1.3.1.1,0,.3,0,.4-.1.1,0,.2-.2.3-.3l2.7-5,5.4-1.7c.1,0,.3-.1.3-.2,0-.1.2-.2.2-.4,0-.1,0-.2,0-.4,0-.1-.2-.2-.3-.2l-4.8-1.7-.8-5c0-.1,0-.2-.2-.3,0,0-.2-.1-.3-.1-.1,0-.3,0-.4.1-.1,0-.2.2-.3.3l-2.7,5c-4,1.1-8,1.7-12.1,1.7-.2,0-.4,0-.6,0-.2,0-.3-.2-.5-.3s-.2-.3-.3-.5,0-.4,0-.6l1.7-8.8c.3-1.3,1-2.4,2-3.3,1-.8,2.3-1.3,3.6-1.4h22.1Z"/>
    </g>
  </g>
</svg>